<svg xmlns="http://www.w3.org/2000/svg" viewBox="0 0 403 403">
  <g id="Layer_1" data-name="Layer 1">
    <path style="fill: #2a41b3;" d="M615.39,299.82c0,108.6-87.75,196.46-196.07,196.21-108.61-.24-196.92-88.32-195.77-198.19,1.14-109.08,91.1-196,200.18-193.72C529.91,106.32,615.66,193.5,615.39,299.82ZM419.53,127.17c-94.11-.41-171.8,76-173,170.68-1.2,95.45,75.71,175,172.82,175.15,94.76.1,172.09-75.89,173.11-170.92C593.52,203.1,513.05,126.66,419.53,127.17Z" transform="translate(-216.87 -98.28)"/>
    <path style="fill: #fefefe;" d="M419.53,127.17c93.52-.51,174,75.93,172.94,174.91-1,95-78.35,171-173.11,170.92-97.11-.1-174-79.7-172.82-175.15C247.73,203.15,325.42,126.76,419.53,127.17ZM295.88,313c-3.88,5-4.43,10.34-4.5,15.89q-.25,20.67.2,41.35c.1,4.55,1.37,6,6,6.12,7.1.11,14.21.08,21.32,0,4,0,5.95-1.86,6-5.93.06-2.56,1-3.19,3.44-3.16,18.2.22,36.4.31,54.6.4,10.67.05,21.34.09,32-.05,2.47,0,3.46.64,3.49,3.12,0,3.17,1.57,5.6,4.88,5.8a143.68,143.68,0,0,0,24.19-.09c2.83-.31,4.31-1.92,4.32-5,.06-11.63.5-23.26.32-34.88-.12-7.9,1-16.16-4.56-23.29a30.47,30.47,0,0,0,7.15-.64c4.54-1.23,6.22-3.84,6.11-9.56a6.82,6.82,0,0,0-6.53-6.76,68.92,68.92,0,0,0-13.85-.24,6.54,6.54,0,0,0-3.84,1.56c-1.92,1.82-2.2.65-2.69-1.1-2.17-7.76-4.72-15.43-6.6-23.25-1.2-5-4.17-7.79-8.66-9.51a30.15,30.15,0,0,0-6.84-1.87c-22.9-3-45.86-4-68.9-1.59-5.66.58-11.36.85-16.84,2.68-5.26,1.76-8.81,4.72-10.2,10.47-2,8.44-4.69,16.74-7,25-7.1-4.34-14.46-3.42-21.68-1.69-3.63.87-4.91,3.51-4.65,6.82.46,5.65,1.87,7.71,6,8.77A26.15,26.15,0,0,0,295.88,313Zm-8.15-67.38c3.77-4.89,8.77-5.42,14.31-5.4q30.54.06,61.09-.09c35.77-.2,71.55.08,107.32.17,11.67,0,21.09,4.32,27.74,14.26a40.69,40.69,0,0,0,6.28,6.92c11.27,10.51,24.23,18.58,37.75,25.79a17.67,17.67,0,0,1,8.93,10.91c1.39,4.58,1.31,9.34,1.76,14.05.81,8.52-2.23,15.13-8.95,20.23-.15.11-.18.36-.26.55.39.71,1.08.58,1.71.59,6.68,0,13.36.15,20,.08,4.83-.05,7.71-3.07,7.8-8,.06-3.45,0-6.9,0-10.35,0-5.41,0-5.5-5.47-5.53-1.84,0-2.28-.56-2.37-2.35-.12-2.49.57-3.51,3.17-3.21,1.33.15,3.14.69,3.1-1.92-.17-11.42-4-20.47-15-25.67-8.26-3.91-16.44-8-23.72-13.7a15.6,15.6,0,0,1-4.34-5.07c-8.52-16-19.85-29.43-35.26-39.16-6.28-4-12.82-7.53-20.48-8.15-10.2-.83-20.43-1-30.65-1.05-46-.27-92,1-138,1.46-5.78.07-9,2.34-11.07,7.37C289.63,227.07,288.46,236.21,287.73,245.64ZM513.45,354.51A24.57,24.57,0,1,0,489.07,330,24.65,24.65,0,0,0,513.45,354.51ZM497,276.42c-6.57-7.56-12.67-15.44-20.61-21.62a6.63,6.63,0,0,0-3.25-1.32c-6.52-.94-13.09-.92-19.66-1-1.79,0-1.76,1-1.79,2.26-.12,5.06-.25,10.12-.51,15.16-.31,6.22-.36,6.22,5.91,6.37.64,0,1.28.13,1.92.13Z" transform="translate(-216.87 -98.28)"/>
    <path style="fill: #378dfd;" d="M295.88,313a26.15,26.15,0,0,1-7.39-.64c-4.11-1.06-5.52-3.12-6-8.77-.26-3.31,1-5.95,4.65-6.82,7.22-1.73,14.58-2.65,21.68,1.69,2.35-8.24,5-16.54,7-25,1.39-5.75,4.94-8.71,10.2-10.47,5.48-1.83,11.18-2.1,16.84-2.68,23-2.38,46-1.45,68.9,1.59a30.15,30.15,0,0,1,6.84,1.87c4.49,1.72,7.46,4.51,8.66,9.51,1.88,7.82,4.43,15.49,6.6,23.25.49,1.75.77,2.92,2.69,1.1a6.54,6.54,0,0,1,3.84-1.56,68.92,68.92,0,0,1,13.85.24,6.82,6.82,0,0,1,6.53,6.76c.11,5.72-1.57,8.33-6.11,9.56a30.47,30.47,0,0,1-7.15.64c5.58,7.13,4.44,15.39,4.56,23.29.18,11.62-.26,23.25-.32,34.88,0,3.08-1.49,4.69-4.32,5a143.68,143.68,0,0,1-24.19.09c-3.31-.2-4.84-2.63-4.88-5.8,0-2.48-1-3.16-3.49-3.12-10.66.14-21.33.1-32,.05-18.2-.09-36.4-.18-54.6-.4-2.48,0-3.38.6-3.44,3.16-.08,4.07-2,5.89-6,5.93-7.11.07-14.22.1-21.32,0-4.59-.08-5.86-1.57-6-6.12q-.46-20.67-.2-41.35C291.45,323.36,292,318,295.88,313Zm26.43-8.21c2.28-.18,4.29-.3,6.3-.5,13.71-1.35,27.45-2.53,41.23-2.55,16.16,0,32.26,1.39,48.31,3.16,2.24.25,2.93.09,2.14-2.36-1.66-5.11-3-10.31-4.55-15.47-.88-3-1.07-6.72-3-8.65s-6-.8-9-1.16c-23.86-2.8-47.7-1.8-71.54.17a2.35,2.35,0,0,0-2.47,1.93C327.29,287.74,324.85,296.09,322.31,304.81ZM371.85,339c-7.43,0-14.85,0-22.28,0-3.67,0-5.07,1.44-5.15,5.05-.11,4.89,1.08,6.21,6,6.2q21.78-.08,43.57-.24c4,0,5.26-1.39,5.24-5.54s-1.41-5.46-5.39-5.47C386.49,339,379.17,339,371.85,339Zm-43.59-9.59a10.45,10.45,0,1,0-10.42,10.49A10.47,10.47,0,0,0,328.26,329.4Zm86.91.36a10.44,10.44,0,1,0,20.87-.08,10.56,10.56,0,0,0-10.5-10.44A10.41,10.41,0,0,0,415.17,329.76Z" transform="translate(-216.87 -98.28)"/>
    <path style="fill: #378dfd;" d="M287.73,245.64c.73-9.43,1.9-18.57,5.43-27.24,2.06-5,5.29-7.3,11.07-7.37,46-.48,92-1.73,138-1.46,10.22.06,20.45.22,30.65,1.05,7.66.62,14.2,4.19,20.48,8.15,15.41,9.73,26.74,23.21,35.26,39.16a15.6,15.6,0,0,0,4.34,5.07c7.28,5.67,15.46,9.79,23.72,13.7,11,5.2,14.85,14.25,15,25.67,0,2.61-1.77,2.07-3.1,1.92-2.6-.3-3.29.72-3.17,3.21.09,1.79.53,2.33,2.37,2.35,5.47,0,5.47.12,5.47,5.53,0,3.45,0,6.9,0,10.35-.09,4.9-3,7.92-7.8,8-6.67.07-13.35,0-20-.08-.63,0-1.32.12-1.72-.59.09-.19.12-.44.27-.55,6.72-5.1,9.76-11.71,8.95-20.23-.45-4.71-.37-9.47-1.76-14.05a17.67,17.67,0,0,0-8.93-10.91c-13.52-7.21-26.48-15.28-37.75-25.79a40.69,40.69,0,0,1-6.28-6.92c-6.65-9.94-16.07-14.23-27.74-14.26-35.77-.09-71.55-.37-107.32-.17q-30.54.16-61.09.09C296.5,240.22,291.5,240.75,287.73,245.64Z" transform="translate(-216.87 -98.28)"/>
    <path style="fill: #378dfd;" d="M513.45,354.51a24.57,24.57,0,0,1,.3-49.13,24.57,24.57,0,1,1-.3,49.13Zm.26-10.91A13.76,13.76,0,0,0,527.32,330a13.69,13.69,0,1,0-27.37-.11A13.61,13.61,0,0,0,513.71,343.6Z" transform="translate(-216.87 -98.28)"/>
    <path style="fill: #378dfd;" d="M497,276.42H459c-.64,0-1.28-.11-1.92-.13-6.27-.15-6.22-.15-5.91-6.37.26-5,.39-10.1.51-15.16,0-1.29,0-2.27,1.79-2.26,6.57.06,13.14,0,19.66,1a6.63,6.63,0,0,1,3.25,1.32C484.29,261,490.39,268.86,497,276.42Z" transform="translate(-216.87 -98.28)"/>
    <path style="fill: #fefefe;" d="M322.31,304.81c2.54-8.72,5-17.07,7.37-25.43a2.35,2.35,0,0,1,2.47-1.93c23.84-2,47.68-3,71.54-.17,3.08.36,7-.86,9,1.16s2.14,5.68,3,8.65c1.53,5.16,2.89,10.36,4.55,15.47.79,2.45.1,2.61-2.14,2.36-16-1.77-32.15-3.19-48.31-3.16-13.78,0-27.52,1.2-41.23,2.55C326.6,304.51,324.59,304.63,322.31,304.81Z" transform="translate(-216.87 -98.28)"/>
    <path style="fill: #f8f8f8;" d="M371.85,339c7.32,0,14.64,0,22,0,4,0,5.36,1.43,5.39,5.47S397.94,350,394,350q-21.79.14-43.57.24c-4.89,0-6.08-1.31-6-6.2.08-3.61,1.48-5,5.15-5.05C357,339,364.42,339,371.85,339Z" transform="translate(-216.87 -98.28)"/>
    <path style="fill: #fefefe;" d="M328.26,329.4A10.45,10.45,0,1,1,317.8,319,10.5,10.5,0,0,1,328.26,329.4Z" transform="translate(-216.87 -98.28)"/>
    <path style="fill: #fefefe;" d="M415.17,329.76a10.41,10.41,0,0,1,10.37-10.52,10.48,10.48,0,0,1,.08,20.95A10.43,10.43,0,0,1,415.17,329.76Z" transform="translate(-216.87 -98.28)"/>
    <path style="fill: #fefefe;" d="M513.71,343.6A13.61,13.61,0,0,1,500,329.93a13.69,13.69,0,1,1,13.76,13.67Z" transform="translate(-216.87 -98.28)"/></g><g id="Layer_2" data-name="Layer 2">
    <path style="fill: #378dfd;" d="M425.45,279.64c2.84.51,5.73.89,8.54,1.55,20.69,4.91,36.68,23,39.36,44,1,8-.39,15.63-3,23.13-4.78,13.79-11.51,26.67-18.65,39.34-9,16-18.84,31.54-29.29,46.66-.28.41-.58.8-1,1.35-1.6-2.35-3.15-4.55-4.64-6.78-13.21-19.79-25.74-40-36.17-61.41a150.29,150.29,0,0,1-9.69-24.42c-3.42-12-1.82-23.46,3.74-34.3,8.74-17.06,22.86-26.69,42-28.91a4.65,4.65,0,0,0,.86-.25Zm-4,144.53c.41-.61.66-.93.87-1.28,8.26-13.43,16.7-26.74,24.71-40.32a212.43,212.43,0,0,0,16.58-34.41c2.87-7.82,4.38-15.71,3-24.14-3.91-23.37-26.64-40.57-50.21-37.54-16.24,2.09-28.33,10.52-35.8,25.09-5.08,9.9-6.54,20.4-2.93,31.15a181.27,181.27,0,0,0,7,17.94c8.34,18.17,18.69,35.22,29.4,52.06C416.39,416.5,418.87,420.23,421.44,424.17Z" transform="translate(-216.87 -98.28)"/>
    <path style="fill: #2fc3d0;" d="M421.44,424.17c-2.57-3.94-5.05-7.67-7.45-11.45-10.71-16.84-21.06-33.89-29.4-52.06a181.27,181.27,0,0,1-7-17.94c-3.61-10.75-2.15-21.25,2.93-31.15,7.47-14.57,19.56-23,35.8-25.09,23.57-3,46.3,14.17,50.21,37.54,1.41,8.43-.1,16.32-3,24.14A212.43,212.43,0,0,1,447,382.57c-8,13.58-16.45,26.89-24.71,40.32C422.1,423.24,421.85,423.56,421.44,424.17Zm0-69.37a22.87,22.87,0,1,0-22.89-22.9A22.9,22.9,0,0,0,421.45,354.8Z" transform="translate(-216.87 -98.28)"/>
    <path style="fill: #378dfd;" d="M421.45,354.8a22.87,22.87,0,1,1,22.91-22.88A22.91,22.91,0,0,1,421.45,354.8Zm16.32-22.91a16.31,16.31,0,1,0-16.29,16.4A16.36,16.36,0,0,0,437.77,331.89Z" transform="translate(-216.87 -98.28)"/>
    <path style="fill: #fff;" d="M437.77,331.89a16.31,16.31,0,1,1-16.41-16.3A16.34,16.34,0,0,1,437.77,331.89Z" transform="translate(-216.87 -98.28)"/>
  </g>
</svg>
